<?xml version="1.0" encoding="UTF-8" standalone="no"?>
<svg width="18px" height="18px" viewBox="0 0 18 18" version="1.1" xmlns="http://www.w3.org/2000/svg" xmlns:xlink="http://www.w3.org/1999/xlink">
    <!-- Generator: Sketch 41.2 (35397) - http://www.bohemiancoding.com/sketch -->
    <title>Close X</title>
    <desc>Created with Sketch.</desc>
    <defs></defs>
    <g id="9-Modals" stroke="none" stroke-width="1" fill="none" fill-rule="evenodd">
        <g id="9.1-Modal---Start-Preperation-02" transform="translate(-942.000000, -194.000000)" fill="#525F6B">
            <g id="Modal">
                <g id="Close-X" transform="translate(942.000000, 194.000000)">
                    <path d="M1.00350851,17.9387628 C0.762287044,17.9387628 0.521065581,17.8464202 0.336380398,17.6636196 C-0.0311054239,17.2942492 -0.0311054239,16.6987338 0.336380398,16.3293634 L16.3286096,0.339018758 C16.6960954,-0.0284670641 17.2934954,-0.0284670641 17.6609812,0.339018758 C18.0284671,0.70650458 18.0284671,1.30390461 17.6609812,1.67139043 L1.67063661,17.6636196 C1.48595143,17.8464202 1.24472997,17.9387628 1.00350851,17.9387628" id="Fill-3785"></path>
                    <path d="M16.3293634,17.6636196 L0.337134216,1.67139043 C-0.0303516068,1.30390461 -0.0303516068,0.70650458 0.337134216,0.339018758 C0.704620038,-0.0284670641 1.30202007,-0.0284670641 1.66950589,0.339018758 L17.6617351,16.3293634 C18.0292209,16.6987338 18.0292209,17.2942492 17.6617351,17.6636196 C17.4770499,17.8464202 17.2358284,17.9387628 16.994607,17.9387628 C16.7533855,17.9387628 16.512164,17.8464202 16.3293634,17.6636196 Z" id="Fill-3786"></path>
                </g>
            </g>
        </g>
    </g>
</svg>