<?xml version="1.0" encoding="UTF-8" standalone="no"?>
<svg width="20px" height="22px" viewBox="0 0 20 22" version="1.1" xmlns="http://www.w3.org/2000/svg" xmlns:xlink="http://www.w3.org/1999/xlink">
    <!-- Generator: Sketch 41.2 (35397) - http://www.bohemiancoding.com/sketch -->
    <title>Icon</title>
    <desc>Created with Sketch.</desc>
    <defs></defs>
    <g id="9-Modals" stroke="none" stroke-width="1" fill="none" fill-rule="evenodd">
        <g id="9.1-Modal---Start-Preperation-01" transform="translate(-319.000000, -358.000000)" fill="#8F98A0">
            <g id="Modal">
                <g id="Checklist" transform="translate(319.000000, 300.000000)">
                    <g id="Row" transform="translate(0.000000, 58.000000)">
                        <g id="Icon">
                            <path d="M9.92669333,18.0304667 C9.52189333,18.0304667 9.19336,18.359 9.19336,18.7638 L9.19336,20.6125333 C9.19336,21.0180667 9.52189333,21.3458667 9.92669333,21.3458667 C10.3314933,21.3458667 10.6600267,21.0180667 10.6600267,20.6125333 L10.6600267,18.7638 C10.6600267,18.359 10.3314933,18.0304667 9.92669333,18.0304667" id="Fill-1363"></path>
                            <path d="M18.7107067,11.0957 L16.86124,11.0957 C16.45644,11.0957 16.1279067,11.4242333 16.1279067,11.8290333 C16.1279067,12.2338333 16.45644,12.5623667 16.86124,12.5623667 L18.7107067,12.5623667 C19.1155067,12.5623667 19.44404,12.2338333 19.44404,11.8290333 C19.44404,11.4242333 19.1155067,11.0957 18.7107067,11.0957" id="Fill-1364"></path>
                            <path d="M9.92669333,0.462366667 C9.52189333,0.462366667 9.19336,0.7909 9.19336,1.1957 L9.19336,4.8939 C9.19336,5.29943333 9.52189333,5.62723333 9.92669333,5.62723333 C10.3314933,5.62723333 10.6600267,5.29943333 10.6600267,4.8939 L10.6600267,1.1957 C10.6600267,0.7909 10.3314933,0.462366667 9.92669333,0.462366667" id="Fill-1365"></path>
                            <path d="M7.37718667,17.52278 C7.00318667,17.3680467 6.57418667,17.5455133 6.41872,17.9195133 L5.71032,19.62818 C5.55485333,20.00218 5.73232,20.43118 6.10705333,20.5866467 C6.19872,20.6240467 6.29405333,20.64238 6.38718667,20.64238 C6.67465333,20.64238 6.94818667,20.4722467 7.06478667,20.1899133 L7.77392,18.4812467 C7.92865333,18.1072467 7.75118667,17.6782467 7.37718667,17.52278" id="Fill-1366"></path>
                            <path d="M13.4368667,17.9201733 C13.2821333,17.5469067 12.8538667,17.3665067 12.4791333,17.5227067 C12.1051333,17.6767067 11.9269333,18.1057067 12.0809333,18.48044 L12.7864,20.1891067 C12.9037333,20.47144 13.1772667,20.6423067 13.4647333,20.6423067 C13.5578667,20.6423067 13.6532,20.6247067 13.7441333,20.5865733 C14.1188667,20.43184 14.2970667,20.0035733 14.1423333,19.62884 L13.4368667,17.9201733 Z" id="Fill-1367"></path>
                            <path d="M2.99185333,12.5623667 C3.39665333,12.5623667 3.72518667,12.2338333 3.72518667,11.8290333 C3.72518667,11.4242333 3.39665333,11.0957 2.99185333,11.0957 L1.14238667,11.0957 C0.737586667,11.0957 0.409053333,11.4242333 0.409053333,11.8290333 C0.409053333,12.2338333 0.737586667,12.5623667 1.14238667,12.5623667 L2.99185333,12.5623667 Z" id="Fill-1368"></path>
                            <path d="M15.65564,9.45611333 C15.7729733,9.73844667 16.0457733,9.90931333 16.33324,9.90931333 C16.4271067,9.90931333 16.52244,9.89098 16.6141067,9.85284667 L18.3227733,9.14444667 C18.6967733,8.98971333 18.87424,8.56071333 18.7187733,8.18671333 C18.56404,7.81198 18.1357733,7.63598 17.76104,7.78998 L16.0523733,8.49764667 C15.6783733,8.65311333 15.5009067,9.08211333 15.65564,9.45611333" id="Fill-1369"></path>
                            <path d="M4.19657333,14.2019533 C4.04184,13.8279533 3.61357333,13.6519533 3.23810667,13.80522 L1.52944,14.51362 C1.15544,14.6683533 0.977973333,15.0973533 1.13344,15.4713533 C1.25004,15.75442 1.52357333,15.9245533 1.81104,15.9245533 C1.90417333,15.9245533 1.99950667,15.90622 2.09117333,15.8680867 L3.79984,15.16042 C4.17384,15.0049533 4.35204,14.5759533 4.19657333,14.2019533" id="Fill-1370"></path>
                            <path d="M15.3484467,16.2143667 C15.0617133,15.9276333 14.5975133,15.9276333 14.3115133,16.2143667 C14.02478,16.5003667 14.02478,16.9645667 14.31078,17.2513 L15.6183133,18.5588333 C15.7620467,18.7025667 15.94978,18.7737 16.1375133,18.7737 C16.3245133,18.7737 16.5122467,18.7025667 16.65598,18.5588333 C16.94198,18.2728333 16.94198,17.8086333 16.65598,17.5219 L15.3484467,16.2143667 Z" id="Fill-1371"></path>
                            <path d="M14.82976,7.65856667 C15.0174933,7.65856667 15.2052267,7.5867 15.3482267,7.4437 L16.65576,6.13616667 C16.9424933,5.84943333 16.9424933,5.38523333 16.65576,5.09923333 C16.3690267,4.8125 15.9048267,4.8125 15.6188267,5.09923333 L14.3112933,6.40676667 C14.02456,6.6935 14.02456,7.1577 14.3112933,7.4437 C14.4542933,7.5867 14.6420267,7.65856667 14.82976,7.65856667" id="Fill-1372"></path>
                            <path d="M12.2996133,6.10023333 C12.39128,6.13836667 12.48588,6.1567 12.5797467,6.1567 C12.8672133,6.1567 13.1407467,5.98583333 13.2573467,5.70276667 L13.9650133,3.99336667 C14.1197467,3.61936667 13.94228,3.19036667 13.5675467,3.03563333 C13.1935467,2.88016667 12.7645467,3.0591 12.6098133,3.4331 L11.9021467,5.1425 C11.7474133,5.5165 11.9256133,5.9455 12.2996133,6.10023333" id="Fill-1373"></path>
                            <path d="M7.24218,3.43332 C7.08671333,3.05858667 6.65918,2.88185333 6.28371333,3.03658667 C5.90971333,3.19132 5.73224667,3.62032 5.88698,3.99505333 L6.59538,5.70372 C6.71271333,5.98605333 6.98551333,6.15618667 7.27298,6.15618667 C7.36684667,6.15618667 7.46144667,6.13785333 7.55384667,6.10045333 C7.92784667,5.94498667 8.10531333,5.51598667 7.95058,5.14198667 L7.24218,3.43332 Z" id="Fill-1374"></path>
                            <path d="M4.50398667,7.4437 C4.64698667,7.5867 4.83472,7.65856667 5.02245333,7.65856667 C5.21018667,7.65856667 5.39792,7.5867 5.54092,7.4437 C5.82765333,7.1577 5.82765333,6.6935 5.54165333,6.40676667 L4.23412,5.09923333 C3.94738667,4.8125 3.48318667,4.8125 3.19645333,5.09923333 C2.91045333,5.38523333 2.91045333,5.84943333 3.19645333,6.13616667 L4.50398667,7.4437 Z" id="Fill-1375"></path>
                            <path d="M5.54114,16.2143667 C5.25440667,15.9276333 4.79020667,15.9276333 4.50420667,16.2143667 L3.19667333,17.5219 C2.90994,17.8086333 2.90994,18.2728333 3.19667333,18.5588333 C3.33967333,18.7025667 3.52740667,18.7737 3.71514,18.7737 C3.90287333,18.7737 4.09060667,18.7025667 4.23360667,18.5588333 L5.54114,17.2513 C5.82787333,16.9645667 5.82787333,16.5003667 5.54114,16.2143667" id="Fill-1376"></path>
                            <path d="M18.3225533,14.5134733 L16.6138867,13.8050733 C16.2398867,13.6518067 15.8108867,13.8278067 15.65542,14.2018067 C15.5006867,14.5758067 15.6781533,15.0048067 16.0521533,15.1602733 L17.76082,15.8686733 C17.8524867,15.9060733 17.94782,15.9244067 18.0416867,15.9244067 C18.3291533,15.9244067 18.6019533,15.7542733 18.7192867,15.47194 C18.87402,15.0972067 18.6965533,14.6682067 18.3225533,14.5134733" id="Fill-1377"></path>
                            <path d="M1.52966,9.14452 L3.23832667,9.85292 C3.32999333,9.89105333 3.42532667,9.90865333 3.51846,9.90865333 C3.80666,9.90865333 4.07946,9.73852 4.19679333,9.45618667 C4.35152667,9.08218667 4.17406,8.65318667 3.80006,8.49772 L2.09139333,7.78932 C1.71666,7.63605333 1.28839333,7.81205333 1.13292667,8.18605333 C0.978193333,8.56078667 1.15566,8.98978667 1.52966,9.14452" id="Fill-1378"></path>
                        </g>
                    </g>
                </g>
            </g>
        </g>
    </g>
</svg>